<?xml version="1.0" encoding="UTF-8" standalone="no"?>
<!-- Created with Inkscape (http://www.inkscape.org/) -->

<svg
   width="390mm"
   height="585mm"
   viewBox="0 0 390 585"
   version="1.1"
   id="svg5"
   inkscape:version="1.2 (dc2aedaf03, 2022-05-15)"
   sodipodi:docname="EcriteauPatio_Découpe.svg"
   xmlns:inkscape="http://www.inkscape.org/namespaces/inkscape"
   xmlns:sodipodi="http://sodipodi.sourceforge.net/DTD/sodipodi-0.dtd"
   xmlns="http://www.w3.org/2000/svg"
   xmlns:svg="http://www.w3.org/2000/svg">
  <sodipodi:namedview
     id="namedview7"
     pagecolor="#ffffff"
     bordercolor="#666666"
     borderopacity="1.0"
     inkscape:showpageshadow="2"
     inkscape:pageopacity="0.0"
     inkscape:pagecheckerboard="0"
     inkscape:deskcolor="#d1d1d1"
     inkscape:document-units="mm"
     showgrid="false"
     inkscape:zoom="0.29734127"
     inkscape:cx="724.75644"
     inkscape:cy="1089.657"
     inkscape:window-width="1600"
     inkscape:window-height="877"
     inkscape:window-x="-8"
     inkscape:window-y="-8"
     inkscape:window-maximized="1"
     inkscape:current-layer="g1836" />
  <defs
     id="defs2" />
  <g
     inkscape:label="Calque 1"
     inkscape:groupmode="layer"
     id="layer1">
    <path
       id="path849-3-7-2-3-1-4"
       style="fill:#808080;fill-opacity:1;stroke:none;stroke-width:1.065;stroke-linecap:butt;stroke-linejoin:miter;stroke-miterlimit:4;stroke-dasharray:none;stroke-opacity:1"
       d="m 197.0404,190.83228 c -9.75946,15.9026 -8.10359,33.57505 -1.54982,44.3851 11.59965,19.13308 25.61702,22.21831 38.36614,23.82943 0,0 39.84874,1.6175 75.73813,0.40387 35.88928,-1.21357 50.61596,-23.45361 56.54187,-33.40529 14.84743,-26.98416 14.04957,-56.4697 -1.22477,-82.27783 -0.35767,-0.58987 -6.92272,-11.05077 -7.54752,-12.08642 l -3.5e-4,-0.001 -1.52818,91.15421 -25.74427,23.00227 -99.19771,-0.34439 -21.02088,-23.49213 0.97338,-46.16032 c -6.03127,4.58788 -10.55287,9.69199 -13.80602,14.99287 z m 12.59663,46.46135 a 0.42390427,0.4239044 30.894039 0 1 0.01,-0.016 0.42390427,0.4239044 30.894039 0 1 0.58121,-0.14605 0.42390427,0.4239044 30.894039 0 1 0.14603,0.5812 0.42390427,0.4239044 30.894039 0 1 -0.58144,0.1465 0.42390427,0.4239044 30.894039 0 1 -0.15535,-0.56568 z m 156.10146,-51.47788 a 0.42390427,0.4239044 30.894039 0 1 0.5812,-0.14603 0.42390427,0.4239044 30.894039 0 1 0.1465,0.58144 0.42390427,0.4239044 30.894039 0 1 -0.58192,0.14625 0.42390427,0.4239044 30.894039 0 1 -0.14578,-0.58166 z" />
    <path
       id="path849-3-7-2-2-6"
       style="fill:#000000;fill-opacity:1;stroke:none;stroke-width:0.264583;stroke-linecap:butt;stroke-linejoin:miter;stroke-miterlimit:4;stroke-dasharray:none;stroke-opacity:1"
       d="m 84.828326,210.55808 c 14.45039,0.0272 33.384204,-0.16735 51.317194,-1.0542 35.866,-1.77316 50.2443,-24.24086 56.0141,-34.28371 14.42461,-27.21248 13.16701,-56.68232 -2.5083,-82.248904 -0.3668,-0.58452 -7.0946,-10.93973 -7.7355,-11.96568 l -19.712,-30.65441 c -2.0128,-2.530711 -4.3981,-2.25007 -7.6383,-0.0553 L 36.104623,127.18482 c -24.351101,20.47838 -23.3882,45.59283 -14.426,59.86824 11.8968,18.94974 25.9593,21.81627 38.732,23.22803 0,0 9.9671,0.24924 24.417703,0.27646 z M 36.228123,191.40524 c -1.2696,0 -2.2987,-1.03037 -2.298,-2.30063 10e-5,-1.26974 1.029,-2.29857 2.298,-2.29857 1.2695,0 2.2989,1.0283 2.2991,2.29857 0,1.27079 -1.029,2.30116 -2.2991,2.30063 z m 155.181697,-53.8572 c -1.2691,0 -2.298,-1.02934 -2.2981,-2.29908 2e-4,-1.26974 1.0291,-2.29911 2.2981,-2.29911 1.2689,0 2.2974,1.02937 2.2975,2.29911 0,1.26974 -1.0284,2.29908 -2.2975,2.29908 z m -80.04579,-29.38282 a 4.8677086,4.8677086 0 0 1 -0.011,0 4.8677086,4.8677086 0 0 1 -4.8678,-4.86794 4.8677086,4.8677086 0 0 1 2.5001,-4.253014 v -8.91624 a 2.3677084,2.3677084 0 0 1 2.3677,-2.36781 2.3677084,2.3677084 0 0 1 2.3673,2.36781 v 8.91624 a 4.8677086,4.8677086 0 0 1 2.5001,4.253014 4.8677086,4.8677086 0 0 1 -4.856,4.86794 z" />
    <g
       id="g906">
      <g
         id="path853"
         style="font-style:normal;font-variant:normal;font-weight:normal;font-stretch:normal;font-size:35.2778px;line-height:1.25;font-family:Candara;-inkscape-font-specification:'Candara, Normal';font-variant-ligatures:normal;font-variant-caps:normal;font-variant-numeric:normal;font-variant-east-asian:normal;fill:none;stroke:#000003;stroke-width:0.264583;stroke-miterlimit:4;stroke-dasharray:none;stroke-opacity:1"
         transform="translate(-528.82802,579.61678)">
        <path
           style="color:#000000;font-style:normal;font-variant:normal;font-weight:normal;font-stretch:normal;font-size:35.2778px;line-height:1.25;font-family:Candara;-inkscape-font-specification:'Candara, Normal';font-variant-ligatures:normal;font-variant-position:normal;font-variant-caps:normal;font-variant-numeric:normal;font-variant-alternates:normal;font-variant-east-asian:normal;font-feature-settings:normal;font-variation-settings:normal;text-indent:0;text-align:start;text-decoration:none;text-decoration-line:none;text-decoration-style:solid;text-decoration-color:#000000;letter-spacing:normal;word-spacing:normal;text-transform:none;writing-mode:lr-tb;direction:ltr;text-orientation:mixed;dominant-baseline:auto;baseline-shift:baseline;text-anchor:start;white-space:normal;shape-padding:0;shape-margin:0;inline-size:0;clip-rule:nonzero;display:inline;overflow:visible;visibility:visible;isolation:auto;mix-blend-mode:normal;color-interpolation:sRGB;color-interpolation-filters:linearRGB;solid-color:#000000;solid-opacity:1;vector-effect:none;fill:none;fill-opacity:1;fill-rule:nonzero;stroke:#000003;stroke-width:0.264583;stroke-linecap:butt;stroke-linejoin:miter;stroke-miterlimit:4;stroke-dasharray:none;stroke-dashoffset:0;stroke-opacity:1;color-rendering:auto;image-rendering:auto;shape-rendering:auto;text-rendering:auto;enable-background:accumulate;stop-color:#000000;stop-opacity:1"
           d="m 556.06641,-35.349609 -7.36719,5.339843 1.7207,2.556641 4.33789,-2.759766 c 0.0109,0.332257 0.022,0.341428 0.0293,0.777344 0.0228,1.353808 0.0352,3.232011 0.0352,5.628906 0,3.49875 -0.0828,6.130313 -0.23829,7.851563 l -0.0977,1.089844 h 3.79687 l -0.0508,-1.048828 c -0.1139,-2.369176 -0.16992,-5.000387 -0.16992,-7.892579 0,-4.055799 0.0577,-7.558809 0.17188,-10.503906 l 0.0391,-1.039062 z"
           id="path878" />
      </g>
      <g
         id="path855"
         style="font-style:normal;font-variant:normal;font-weight:normal;font-stretch:normal;font-size:35.2778px;line-height:1.25;font-family:Candara;-inkscape-font-specification:'Candara, Normal';font-variant-ligatures:normal;font-variant-caps:normal;font-variant-numeric:normal;font-variant-east-asian:normal;fill:none;stroke:#000003;stroke-width:0.264583;stroke-miterlimit:4;stroke-dasharray:none;stroke-opacity:1"
         transform="translate(-529.32365,579.61678)">
        <path
           style="color:#000000;font-style:normal;font-variant:normal;font-weight:normal;font-stretch:normal;font-size:35.2778px;line-height:1.25;font-family:Candara;-inkscape-font-specification:'Candara, Normal';font-variant-ligatures:normal;font-variant-position:normal;font-variant-caps:normal;font-variant-numeric:normal;font-variant-alternates:normal;font-variant-east-asian:normal;font-feature-settings:normal;font-variation-settings:normal;text-indent:0;text-align:start;text-decoration:none;text-decoration-line:none;text-decoration-style:solid;text-decoration-color:#000000;letter-spacing:normal;word-spacing:normal;text-transform:none;writing-mode:lr-tb;direction:ltr;text-orientation:mixed;dominant-baseline:auto;baseline-shift:baseline;text-anchor:start;white-space:normal;shape-padding:0;shape-margin:0;inline-size:0;clip-rule:nonzero;display:inline;overflow:visible;visibility:visible;isolation:auto;mix-blend-mode:normal;color-interpolation:sRGB;color-interpolation-filters:linearRGB;solid-color:#000000;solid-opacity:1;vector-effect:none;fill:none;fill-opacity:1;fill-rule:nonzero;stroke:#000003;stroke-width:0.264583;stroke-linecap:butt;stroke-linejoin:miter;stroke-miterlimit:4;stroke-dasharray:none;stroke-dashoffset:0;stroke-opacity:1;color-rendering:auto;image-rendering:auto;shape-rendering:auto;text-rendering:auto;enable-background:accumulate;stop-color:#000000;stop-opacity:1"
           d="m 567.32812,-35.210938 c -0.73886,0 -1.45591,0.0298 -2.15234,0.08984 h -0.002 c -0.6856,0.06014 -1.22122,0.134775 -1.66797,0.253906 l -0.56641,0.150391 -0.97265,3.802735 1.72265,-0.552735 c 0.14546,-0.04675 0.70373,-0.148487 1.5,-0.214844 h 0.006 0.006 c 0.81412,-0.07807 1.52553,-0.117187 2.12695,-0.117187 1.5055,0 2.52702,0.331462 3.18946,0.875 l 0.006,0.0059 0.006,0.0039 c 0.67934,0.541757 0.98437,1.185384 0.98437,2.25 0,1.182138 -0.39963,2.383733 -1.28711,3.667968 l -0.002,0.002 -0.002,0.0039 c -0.92167,1.349582 -1.93332,2.499524 -3.03516,3.460937 l -0.002,0.002 -0.002,0.002 c -1.1392,1.003854 -2.33594,1.974511 -3.58984,2.91211 l -0.002,0.002 -0.98633,0.746094 -0.76758,3 h 1.28711 12.69922 l 0.78516,-3.404297 -1.31836,0.06055 c -2.16174,0.101728 -4.92384,0.128102 -7.67579,0.154296 1.68542,-1.383091 3.45064,-2.770238 4.64844,-4.125 1.80817,-2.043471 2.76563,-4.396458 2.76563,-6.916015 0,-1.822537 -0.79803,-3.436165 -2.24219,-4.517578 -1.42879,-1.089772 -3.28688,-1.597657 -5.45899,-1.597657 z"
           id="path884"
           sodipodi:nodetypes="scccccccccscccsccccccccccccccccscs" />
      </g>
      <g
         id="path857"
         style="font-style:normal;font-variant:normal;font-weight:normal;font-stretch:normal;font-size:35.2778px;line-height:1.25;font-family:Candara;-inkscape-font-specification:'Candara, Normal';font-variant-ligatures:normal;font-variant-caps:normal;font-variant-numeric:normal;font-variant-east-asian:normal;fill:none;stroke:#000003;stroke-width:0.264583;stroke-miterlimit:4;stroke-dasharray:none;stroke-opacity:1"
         transform="translate(-526.61461,579.61678)">
        <path
           style="color:#000000;font-style:normal;font-variant:normal;font-weight:normal;font-stretch:normal;font-size:35.2778px;line-height:1.25;font-family:Candara;-inkscape-font-specification:'Candara, Normal';font-variant-ligatures:normal;font-variant-position:normal;font-variant-caps:normal;font-variant-numeric:normal;font-variant-alternates:normal;font-variant-east-asian:normal;font-feature-settings:normal;font-variation-settings:normal;text-indent:0;text-align:start;text-decoration:none;text-decoration-line:none;text-decoration-style:solid;text-decoration-color:#000000;letter-spacing:normal;word-spacing:normal;text-transform:none;writing-mode:lr-tb;direction:ltr;text-orientation:mixed;dominant-baseline:auto;baseline-shift:baseline;text-anchor:start;white-space:normal;shape-padding:0;shape-margin:0;inline-size:0;clip-rule:nonzero;display:inline;overflow:visible;visibility:visible;isolation:auto;mix-blend-mode:normal;color-interpolation:sRGB;color-interpolation-filters:linearRGB;solid-color:#000000;solid-opacity:1;vector-effect:none;fill:none;fill-opacity:1;fill-rule:nonzero;stroke:#000003;stroke-width:0.264583;stroke-linecap:butt;stroke-linejoin:miter;stroke-miterlimit:4;stroke-dasharray:none;stroke-dashoffset:0;stroke-opacity:1;color-rendering:auto;image-rendering:auto;shape-rendering:auto;text-rendering:auto;enable-background:accumulate;stop-color:#000000;stop-opacity:1"
           d="m 584.83008,-35.210938 c -2.04641,0 -3.81777,0.180675 -5.32813,0.564454 l -0.69336,0.175781 -0.29101,3.59375 1.35937,-0.349609 c 1.37298,-0.353972 2.93664,-0.53711 4.69336,-0.53711 1.70893,0 2.82552,0.308543 3.32422,0.669922 l 0.002,0.002 0.004,0.002 c 0.51392,0.367086 0.78711,0.902978 0.78711,1.994141 0,0.653458 -0.18965,1.18353 -0.63477,1.726562 l -0.002,0.002 c -0.36292,0.444396 -1.08392,0.867477 -2.28516,1.136719 -1.24935,0.268657 -2.64607,0.408203 -4.1914,0.408203 h -0.8125 l -0.69531,3.308594 h 1.23242 c 2.9059,0 4.90032,0.240212 5.71679,0.541016 h 0.002 l 0.002,0.002 c 0.96067,0.350247 1.57968,0.812862 1.96875,1.371094 0.37246,0.534399 0.61133,1.359589 0.61133,2.546875 0,1.876105 -0.844,3.23527 -2.89453,4.421875 l -0.002,0.002 c -2.06949,1.203684 -4.83355,1.931823 -8.31835,2.121094 l -1.37696,0.07617 1.29492,3.3417972 0.72852,-0.042969 c 3.74169,-0.2151769 7.02762,-1.2410774 9.78516,-3.0957032 h -0.004 c 2.78693,-1.862061 4.33789,-4.395578 4.33789,-7.324218 0,-1.846434 -0.57436,-3.456252 -1.75,-4.591797 -0.55201,-0.544323 -1.18754,-0.999284 -1.89648,-1.367188 0.57897,-0.365577 1.08115,-0.78379 1.46875,-1.28125 0.81279,-1.029291 1.19531,-2.352401 1.19531,-3.835937 0,-1.735534 -0.78628,-3.269488 -2.19531,-4.222656 -1.37736,-0.931738 -3.11902,-1.359376 -5.14258,-1.359376 z"
           id="path890"
           sodipodi:nodetypes="sccccscccscccsccscccssccccccccscccsss" />
      </g>
      <g
         id="path859"
         style="font-style:normal;font-variant:normal;font-weight:normal;font-stretch:normal;font-size:35.2778px;line-height:1.25;font-family:Candara;-inkscape-font-specification:'Candara, Normal';font-variant-ligatures:normal;font-variant-caps:normal;font-variant-numeric:normal;font-variant-east-asian:normal;fill:none;stroke:#000003;stroke-width:0.264583;stroke-miterlimit:4;stroke-dasharray:none;stroke-opacity:1"
         transform="translate(-525.76786,579.61678)">
        <path
           style="color:#000000;font-style:normal;font-variant:normal;font-weight:normal;font-stretch:normal;font-size:35.2778px;line-height:1.25;font-family:Candara;-inkscape-font-specification:'Candara, Normal';font-variant-ligatures:normal;font-variant-position:normal;font-variant-caps:normal;font-variant-numeric:normal;font-variant-alternates:normal;font-variant-east-asian:normal;font-feature-settings:normal;font-variation-settings:normal;text-indent:0;text-align:start;text-decoration:none;text-decoration-line:none;text-decoration-style:solid;text-decoration-color:#000000;letter-spacing:normal;word-spacing:normal;text-transform:none;writing-mode:lr-tb;direction:ltr;text-orientation:mixed;dominant-baseline:auto;baseline-shift:baseline;text-anchor:start;white-space:normal;shape-padding:0;shape-margin:0;inline-size:0;clip-rule:nonzero;display:inline;overflow:visible;visibility:visible;isolation:auto;mix-blend-mode:normal;color-interpolation:sRGB;color-interpolation-filters:linearRGB;solid-color:#000000;solid-opacity:1;vector-effect:none;fill:none;fill-opacity:1;fill-rule:nonzero;stroke:#000003;stroke-width:0.264583;stroke-linecap:butt;stroke-linejoin:miter;stroke-miterlimit:4;stroke-dasharray:none;stroke-dashoffset:0;stroke-opacity:1;color-rendering:auto;image-rendering:auto;shape-rendering:auto;text-rendering:auto;enable-background:accumulate;stop-color:#000000;stop-opacity:1"
           d="m 605.68945,-35.039062 v 0.757812 c -0.0883,0.137631 -0.24164,0.359725 -0.44726,0.646484 -0.41126,0.57352 -1.03984,1.417285 -1.88086,2.521485 -1.68895,2.217459 -2.59546,3.41233 -2.84571,3.765625 l -0.72265,0.957031 c -1.35698,1.793966 -2.40982,3.202352 -3.16211,4.232422 -0.37875,0.5129 -0.66685,0.923359 -0.875,1.25 -0.10445,0.163903 -0.18938,0.306495 -0.26172,0.451172 -0.0723,0.144677 -0.17578,0.219386 -0.17578,0.646484 v 0.173828 l 0.625,1.738281 h 10.2207 c -0.0141,3.065247 -0.0598,5.774571 -0.17968,7.652344 l -0.0684,1.0644534 h 3.75781 l -0.0391,-1.0371094 c -0.0568,-1.534423 -0.0859,-3.180227 -0.0859,-4.935547 v -0.0039 -0.002 l 0.0137,-2.738282 h 2.80469 l 0.78515,-3.576171 -1.40039,0.171875 c -0.74452,0.09117 -1.46074,0.108101 -2.18164,0.136718 0.003,-2.255868 0.0112,-4.632681 0.0312,-7.318359 0.0229,-3.073147 0.0618,-4.96964 0.0996,-5.480469 l 0.0801,-1.074218 z"
           id="path896"
           sodipodi:nodetypes="ccsscccssscccccccscccccccsccc" />
      </g>
      <g
         id="path861"
         style="font-style:normal;font-variant:normal;font-weight:normal;font-stretch:normal;font-size:35.2778px;line-height:1.25;font-family:Candara;-inkscape-font-specification:'Candara, Normal';font-variant-ligatures:normal;font-variant-caps:normal;font-variant-numeric:normal;font-variant-east-asian:normal;fill:none;stroke:#000003;stroke-width:0.264583;stroke-miterlimit:4;stroke-dasharray:none;stroke-opacity:1"
         transform="translate(-524.16055,579.61678)">
        <path
           style="color:#000000;font-style:normal;font-variant:normal;font-weight:normal;font-stretch:normal;font-size:35.2778px;line-height:1.25;font-family:Candara;-inkscape-font-specification:'Candara, Normal';font-variant-ligatures:normal;font-variant-position:normal;font-variant-caps:normal;font-variant-numeric:normal;font-variant-alternates:normal;font-variant-east-asian:normal;font-feature-settings:normal;font-variation-settings:normal;text-indent:0;text-align:start;text-decoration:none;text-decoration-line:none;text-decoration-style:solid;text-decoration-color:#000000;letter-spacing:normal;word-spacing:normal;text-transform:none;writing-mode:lr-tb;direction:ltr;text-orientation:mixed;dominant-baseline:auto;baseline-shift:baseline;text-anchor:start;white-space:normal;shape-padding:0;shape-margin:0;inline-size:0;clip-rule:nonzero;display:inline;overflow:visible;visibility:visible;isolation:auto;mix-blend-mode:normal;color-interpolation:sRGB;color-interpolation-filters:linearRGB;solid-color:#000000;solid-opacity:1;vector-effect:none;fill:none;fill-opacity:1;fill-rule:nonzero;stroke:#000003;stroke-width:0.264583;stroke-linecap:butt;stroke-linejoin:miter;stroke-miterlimit:4;stroke-dasharray:none;stroke-dashoffset:0;stroke-opacity:1;color-rendering:auto;image-rendering:auto;shape-rendering:auto;text-rendering:auto;enable-background:accumulate;stop-color:#000000;stop-opacity:1"
           d="m 616.12695,-35.039062 v 1 c 0,1.755415 -0.28715,5.15669 -0.87109,10.080078 l -0.13281,1.117187 h 1.125 c 2.76786,0 4.87497,0.148882 6.2539,0.414063 h 0.004 0.004 c 1.3528,0.249748 2.27623,0.717608 2.875,1.333984 l 0.006,0.0039 0.004,0.0059 c 0.55667,0.55667 0.89649,1.439344 0.89649,2.857422 0,1.777847 -0.79589,3.114625 -2.71875,4.320312 l -0.002,0.002 -0.004,0.002 c -1.93136,1.22809 -4.45161,1.953421 -7.61133,2.119141 l -1.31055,0.06836 1.0625,3.1894534 0.74024,-0.019531 c 2.27436,-0.060488 4.44509,-0.5161099 6.48828,-1.3671875 2.06748,-0.8563549 3.75398,-2.0653199 4.99609,-3.6230469 1.24654,-1.551807 1.9082,-3.334191 1.9082,-5.22461 0,-2.52355 -1.06246,-4.607324 -3.05468,-5.785156 -1.79006,-1.064355 -4.50018,-1.520252 -7.96094,-1.654297 0.0263,-0.590352 0.04,-1.132692 0.125,-1.966797 v -0.002 c 0.1002,-0.992942 0.251,-2.304418 0.41016,-3.660156 2.63101,0.02368 5.16949,0.113055 7.50976,0.335937 l 1.03516,0.09766 0.20117,-3.644531 z"
           id="path902" />
      </g>
      <g
         id="path863"
         style="font-style:normal;font-variant:normal;font-weight:normal;font-stretch:normal;font-size:35.2778px;line-height:1.25;font-family:Candara;-inkscape-font-specification:'Candara, Normal';font-variant-ligatures:normal;font-variant-caps:normal;font-variant-numeric:normal;font-variant-east-asian:normal;fill:none;stroke:#000003;stroke-width:0.264583;stroke-miterlimit:4;stroke-dasharray:none;stroke-opacity:1"
         transform="translate(-524.29599,579.61678)">
        <path
           style="color:#000000;font-style:normal;font-variant:normal;font-weight:normal;font-stretch:normal;font-size:35.2778px;line-height:1.25;font-family:Candara;-inkscape-font-specification:'Candara, Normal';font-variant-ligatures:normal;font-variant-position:normal;font-variant-caps:normal;font-variant-numeric:normal;font-variant-alternates:normal;font-variant-east-asian:normal;font-feature-settings:normal;font-variation-settings:normal;text-indent:0;text-align:start;text-decoration:none;text-decoration-line:none;text-decoration-style:solid;text-decoration-color:#000000;letter-spacing:normal;word-spacing:normal;text-transform:none;writing-mode:lr-tb;direction:ltr;text-orientation:mixed;dominant-baseline:auto;baseline-shift:baseline;text-anchor:start;white-space:normal;shape-padding:0;shape-margin:0;inline-size:0;clip-rule:nonzero;display:inline;overflow:visible;visibility:visible;isolation:auto;mix-blend-mode:normal;color-interpolation:sRGB;color-interpolation-filters:linearRGB;solid-color:#000000;solid-opacity:1;vector-effect:none;fill:none;fill-opacity:1;fill-rule:nonzero;stroke:#000003;stroke-width:0.264583;stroke-linecap:butt;stroke-linejoin:miter;stroke-miterlimit:4;stroke-dasharray:none;stroke-dashoffset:0;stroke-opacity:1;color-rendering:auto;image-rendering:auto;shape-rendering:auto;text-rendering:auto;enable-background:accumulate;stop-color:#000000;stop-opacity:1"
           d="m 646.26758,-40.068359 -0.9336,0.07227 c -3.99869,0.307592 -7.17019,1.74896 -9.26562,4.34375 -2.09543,2.594791 -3.07813,6.230207 -3.07813,10.794922 0,3.047322 0.71116,5.635442 2.19336,7.654297 l 0.002,0.002 0.002,0.0039 c 1.50264,2.016371 3.66809,3.107422 6.17578,3.107422 2.45488,0 4.59884,-0.786832 6.22266,-2.345703 l 0.002,-0.002 v -0.002 c 1.62439,-1.572407 2.45899,-3.680268 2.45899,-6.091797 0,-2.524733 -0.67379,-4.627324 -2.10743,-6.103516 -1.44404,-1.498538 -3.56207,-2.201172 -6.12695,-2.201172 -1.38485,0 -2.73825,0.282427 -4.02734,0.837891 -0.2831,0.120525 -0.50808,0.29333 -0.76758,0.435547 0.49004,-1.901941 1.15081,-3.521847 2.14258,-4.5625 l 0.002,-0.002 c 1.42903,-1.509541 3.5407,-2.426484 6.50977,-2.6875 l 1.05273,-0.09375 z"
           id="path908"
           sodipodi:nodetypes="ccsscccssccscsccssccc" />
      </g>
      <g
         id="path865"
         style="font-style:normal;font-variant:normal;font-weight:normal;font-stretch:normal;font-size:35.2778px;line-height:1.25;font-family:Candara;-inkscape-font-specification:'Candara, Normal';font-variant-ligatures:normal;font-variant-caps:normal;font-variant-numeric:normal;font-variant-east-asian:normal;fill:none;stroke:#000003;stroke-width:0.264583;stroke-miterlimit:4;stroke-dasharray:none;stroke-opacity:1"
         transform="translate(-523.38954,579.61678)">
        <path
           style="color:#000000;font-style:normal;font-variant:normal;font-weight:normal;font-stretch:normal;font-size:35.2778px;line-height:1.25;font-family:Candara;-inkscape-font-specification:'Candara, Normal';font-variant-ligatures:normal;font-variant-position:normal;font-variant-caps:normal;font-variant-numeric:normal;font-variant-alternates:normal;font-variant-east-asian:normal;font-feature-settings:normal;font-variation-settings:normal;text-indent:0;text-align:start;text-decoration:none;text-decoration-line:none;text-decoration-style:solid;text-decoration-color:#000000;letter-spacing:normal;word-spacing:normal;text-transform:none;writing-mode:lr-tb;direction:ltr;text-orientation:mixed;dominant-baseline:auto;baseline-shift:baseline;text-anchor:start;white-space:normal;shape-padding:0;shape-margin:0;inline-size:0;clip-rule:nonzero;display:inline;overflow:visible;visibility:visible;isolation:auto;mix-blend-mode:normal;color-interpolation:sRGB;color-interpolation-filters:linearRGB;solid-color:#000000;solid-opacity:1;vector-effect:none;fill:none;fill-opacity:1;fill-rule:nonzero;stroke:#000003;stroke-width:0.264583;stroke-linecap:butt;stroke-linejoin:miter;stroke-miterlimit:4;stroke-dasharray:none;stroke-dashoffset:0;stroke-opacity:1;color-rendering:auto;image-rendering:auto;shape-rendering:auto;text-rendering:auto;enable-background:accumulate;stop-color:#000000;stop-opacity:1"
           d="m 652.23633,-35.039062 -0.0781,3.576171 1.04688,-0.02539 c 3.36563,-0.08209 6.91741,-0.116429 10.56054,-0.125 -0.27308,1.462791 -0.83262,3.271567 -1.91601,5.611328 -1.3542,2.924608 -2.72199,5.540827 -4.10156,7.847656 l -0.9961,1.650391 c -1.05778,1.724748 -1.81937,3.002989 -2.29297,3.855468 l -0.004,0.0078 -0.004,0.0078 c -0.23332,0.436729 -0.41275,0.802534 -0.54492,1.121093 -0.13217,0.318559 -0.24414,0.53865 -0.24414,0.96875 v 0.8046878 l 3.65234,0.7988281 v -1.2421879 c 0,0.3071243 0.046,-0.07928 0.25782,-0.501953 0.51058,-0.923883 0.94908,-1.700875 1.35351,-2.416015 0.19624,-0.353808 0.39561,-0.707292 0.59375,-1.060547 h 0.004 l 0.19922,-0.359375 0.082,-0.148438 0.004,-0.0078 c 2.99699,-5.417631 5.04928,-9.564196 6.17383,-12.511719 1.11129,-2.912751 1.70313,-5.134258 1.70313,-6.851562 v -1 z"
           id="path914"
           sodipodi:nodetypes="ccccscccccssccccccccccsscc" />
      </g>
      <g
         id="path867"
         style="font-style:normal;font-variant:normal;font-weight:normal;font-stretch:normal;font-size:35.2778px;line-height:1.25;font-family:Candara;-inkscape-font-specification:'Candara, Normal';font-variant-ligatures:normal;font-variant-caps:normal;font-variant-numeric:normal;font-variant-east-asian:normal;fill:none;stroke:#000003;stroke-width:0.264583;stroke-miterlimit:4;stroke-dasharray:none;stroke-opacity:1"
         transform="translate(-522.9042,579.61678)">
        <path
           style="color:#000000;font-style:normal;font-variant:normal;font-weight:normal;font-stretch:normal;font-size:35.2778px;line-height:1.25;font-family:Candara;-inkscape-font-specification:'Candara, Normal';font-variant-ligatures:normal;font-variant-position:normal;font-variant-caps:normal;font-variant-numeric:normal;font-variant-alternates:normal;font-variant-east-asian:normal;font-feature-settings:normal;font-variation-settings:normal;text-indent:0;text-align:start;text-decoration:none;text-decoration-line:none;text-decoration-style:solid;text-decoration-color:#000000;letter-spacing:normal;word-spacing:normal;text-transform:none;writing-mode:lr-tb;direction:ltr;text-orientation:mixed;dominant-baseline:auto;baseline-shift:baseline;text-anchor:start;white-space:normal;shape-padding:0;shape-margin:0;inline-size:0;clip-rule:nonzero;display:inline;overflow:visible;visibility:visible;isolation:auto;mix-blend-mode:normal;color-interpolation:sRGB;color-interpolation-filters:linearRGB;solid-color:#000000;solid-opacity:1;vector-effect:none;fill:none;fill-opacity:1;fill-rule:nonzero;stroke:#000003;stroke-width:0.264583;stroke-linecap:butt;stroke-linejoin:miter;stroke-miterlimit:4;stroke-dasharray:none;stroke-dashoffset:0;stroke-opacity:1;color-rendering:auto;image-rendering:auto;shape-rendering:auto;text-rendering:auto;enable-background:accumulate;stop-color:#000000;stop-opacity:1"
           d="m 678.58789,-40.396484 c -1.92753,0 -3.63683,0.549037 -4.9668,1.664062 l -0.002,0.002 -0.002,0.002 c -1.32037,1.118273 -2.04102,2.679441 -2.04102,4.414063 0,1.338365 0.402,2.585111 1.18945,3.607422 l 0.002,0.0039 0.004,0.002 c 0.51821,0.661157 1.4594,1.249833 2.3086,1.853516 -1.21193,0.692122 -2.30444,1.480351 -3.13281,2.46875 v 0.002 c -1.11143,1.328595 -1.73243,2.807802 -1.73243,4.34375 0,2.151267 0.85222,4.047404 2.45313,5.412109 l 0.002,0.002 0.002,0.002 c 1.59002,1.344412 3.56433,2.027344 5.76171,2.027344 2.31908,0 4.37727,-0.703946 6.00782,-2.101562 l 0.002,-0.002 v -0.002 c 1.63919,-1.418032 2.51758,-3.34809 2.51758,-5.527344 0,-1.421416 -0.62604,-2.788525 -1.71289,-4.017578 l -0.002,-0.002 c -0.78232,-0.893667 -2.03954,-1.691039 -3.27343,-2.496093 0.93559,-0.611533 1.76213,-1.282501 2.32812,-2.09375 v -0.002 l 0.002,-0.002 c 0.78459,-1.137643 1.21094,-2.393316 1.21094,-3.685546 0,-1.758412 -0.68073,-3.314838 -1.9707,-4.357422 -4.4e-4,-3.62e-4 -0.002,3.61e-4 -0.002,0 -1.27503,-1.038794 -2.97068,-1.517578 -4.95313,-1.517578 z"
           id="path920"
           sodipodi:nodetypes="scccsccccccscccscccsccccccsscs" />
      </g>
      <g
         id="path869"
         style="font-style:normal;font-variant:normal;font-weight:normal;font-stretch:normal;font-size:35.2778px;line-height:1.25;font-family:Candara;-inkscape-font-specification:'Candara, Normal';font-variant-ligatures:normal;font-variant-caps:normal;font-variant-numeric:normal;font-variant-east-asian:normal;fill:none;stroke:#000003;stroke-width:0.264583;stroke-miterlimit:4;stroke-dasharray:none;stroke-opacity:1"
         transform="translate(-523.03974,579.61678)">
        <path
           style="color:#000000;font-style:normal;font-variant:normal;font-weight:normal;font-stretch:normal;font-size:35.2778px;line-height:1.25;font-family:Candara;-inkscape-font-specification:'Candara, Normal';font-variant-ligatures:normal;font-variant-position:normal;font-variant-caps:normal;font-variant-numeric:normal;font-variant-alternates:normal;font-variant-east-asian:normal;font-feature-settings:normal;font-variation-settings:normal;text-indent:0;text-align:start;text-decoration:none;text-decoration-line:none;text-decoration-style:solid;text-decoration-color:#000000;letter-spacing:normal;word-spacing:normal;text-transform:none;writing-mode:lr-tb;direction:ltr;text-orientation:mixed;dominant-baseline:auto;baseline-shift:baseline;text-anchor:start;white-space:normal;shape-padding:0;shape-margin:0;inline-size:0;clip-rule:nonzero;display:inline;overflow:visible;visibility:visible;isolation:auto;mix-blend-mode:normal;color-interpolation:sRGB;color-interpolation-filters:linearRGB;solid-color:#000000;solid-opacity:1;vector-effect:none;fill:none;fill-opacity:1;fill-rule:nonzero;stroke:#000003;stroke-width:0.264583;stroke-linecap:butt;stroke-linejoin:miter;stroke-miterlimit:4;stroke-dasharray:none;stroke-dashoffset:0;stroke-opacity:1;color-rendering:auto;image-rendering:auto;shape-rendering:auto;text-rendering:auto;enable-background:accumulate;stop-color:#000000;stop-opacity:1"
           d="m 698.62109,-35.210938 c -2.4323,0 -4.54694,0.782038 -6.12695,2.335938 -1.58322,1.557048 -2.38281,3.669734 -2.38281,6.105469 0,2.519138 0.68973,4.625654 2.14648,6.109375 l 0.002,0.002 0.002,0.002 c 1.47879,1.492368 3.62387,2.189453 6.2207,2.189453 1.36532,0 2.66562,-0.261725 3.86328,-0.789062 l 0.004,-0.002 c 0.25433,-0.111091 0.45947,-0.276046 0.69531,-0.408204 -0.50884,2.284994 -1.2544,4.224769 -2.44726,5.492188 h -0.002 v 0.002 c -1.64513,1.75823 -3.98964,2.803465 -7.21484,3.097656 l -1.33594,0.121094 1.25391,3.1347656 0.73242,-0.056641 c 4.13607,-0.3255798 7.44724,-1.8670804 9.6875,-4.6191406 2.26042,-2.76554 3.30859,-6.75947 3.30859,-11.880859 0,-2.97268 -0.72113,-5.546677 -2.20312,-7.611328 -1.48709,-2.086677 -3.66698,-3.224609 -6.20313,-3.22461 z"
           id="path926"
           sodipodi:nodetypes="sssscsscccccccccccscs" />
      </g>
      <g
         id="path871"
         style="font-style:normal;font-variant:normal;font-weight:normal;font-stretch:normal;font-size:35.2778px;line-height:1.25;font-family:Candara;-inkscape-font-specification:'Candara, Normal';font-variant-ligatures:normal;font-variant-caps:normal;font-variant-numeric:normal;font-variant-east-asian:normal;fill:none;stroke:#000003;stroke-width:0.264583;stroke-miterlimit:4;stroke-dasharray:none;stroke-opacity:1"
         transform="translate(-523.10697,577.95072)">
        <path
           style="color:#000000;font-style:normal;font-variant:normal;font-weight:normal;font-stretch:normal;font-size:35.2778px;line-height:1.25;font-family:Candara;-inkscape-font-specification:'Candara, Normal';font-variant-ligatures:normal;font-variant-position:normal;font-variant-caps:normal;font-variant-numeric:normal;font-variant-alternates:normal;font-variant-east-asian:normal;font-feature-settings:normal;font-variation-settings:normal;text-indent:0;text-align:start;text-decoration:none;text-decoration-line:none;text-decoration-style:solid;text-decoration-color:#000000;letter-spacing:normal;word-spacing:normal;text-transform:none;writing-mode:lr-tb;direction:ltr;text-orientation:mixed;dominant-baseline:auto;baseline-shift:baseline;text-anchor:start;white-space:normal;shape-padding:0;shape-margin:0;inline-size:0;clip-rule:nonzero;display:inline;overflow:visible;visibility:visible;isolation:auto;mix-blend-mode:normal;color-interpolation:sRGB;color-interpolation-filters:linearRGB;solid-color:#000000;solid-opacity:1;vector-effect:none;fill:none;fill-opacity:1;fill-rule:nonzero;stroke:#000003;stroke-width:0.264583;stroke-linecap:butt;stroke-linejoin:miter;stroke-miterlimit:4;stroke-dasharray:none;stroke-dashoffset:0;stroke-opacity:1;color-rendering:auto;image-rendering:auto;shape-rendering:auto;text-rendering:auto;enable-background:accumulate;stop-color:#000000;stop-opacity:1"
           d="m 718.6543,-35.003906 c -2.53809,0 -4.73692,1.130547 -6.28125,3.210937 v 0.002 c -1.49989,2.024845 -2.26367,4.387841 -2.26367,6.96875 -10e-6,2.673163 0.69571,5.045465 2.0996,7.00586 1.43277,2.000712 3.55174,3.08789 6.01563,3.08789 2.64982,0 4.90287,-1.124718 6.41016,-3.224609 1.48492,-2.05292 2.2207,-4.547769 2.2207,-7.369141 0,-2.505226 -0.71978,-4.772883 -2.14453,-6.677734 l -0.002,-0.002 c -1.44987,-1.953284 -3.57853,-3.001953 -6.05468,-3.001953 z"
           id="path932"
           sodipodi:nodetypes="sccssscsccs" />
      </g>
    </g>
    <path
       id="path849-3-7-9-0-6"
       style="fill:#b1b1b1;fill-opacity:1;stroke:none;stroke-width:0.264583;stroke-linecap:butt;stroke-linejoin:miter;stroke-miterlimit:4;stroke-dasharray:none;stroke-opacity:1"
       d="m 18.756049,365.81645 c 0.0605,9.18895 3.11959,17.47575 7.48068,24.42278 12.6868,20.20972 27.68366,23.26717 41.30445,24.77265 0,0 42.517231,1.06315 80.764581,-0.82836 38.2476,-1.8915 53.57939,-25.85389 59.73229,-36.5647 15.3824,-29.02148 13.1086,-60.29508 -3.6076,-87.56159 -7.4309,-11.83719 -24.21479,-40.36621 -25.67229,-56.69881 L 62.994689,306.36478 c -33.54192,21.07782 -44.35417,41.90913 -44.23864,59.45167 z m 45.89642,17.31211 0.0506,-1.04902 c 0.10315,-2.10426 0.18106,-3.94867 0.23254,-5.533 v -0.004 -0.004 c 0.0614,-1.577 0.0915,-3.25834 0.0915,-5.04518 0,-3.40386 -0.0871,-6.57278 -0.26148,-9.50587 l -0.0625,-1.0604 h 2.85771 l 2.24586,-0.0765 h 0.0176 0.0176 c 0.5937,0 1.07272,-0.005 1.42988,-0.0155 l 0.0145,0.001 h 0.0134 c 2.27443,0 4.10709,0.41688 5.4374,1.42576 1.33789,1.00661 2.02778,2.6044 2.02778,4.44108 0,1.45899 -0.40535,2.80149 -1.21698,3.9083 -0.46833,0.63843 -1.07332,1.16345 -1.74201,1.62726 0.79304,0.59407 1.5167,1.34641 2.09961,2.37506 0.94058,1.64121 1.96589,4.01354 3.12281,7.17166 l 0.49247,1.34358 h -3.51761 l -0.24443,-0.64648 c -0.70303,-1.86457 -1.42397,-3.53523 -2.16007,-5.00742 l -0.002,-0.002 -0.002,-0.004 c -0.71925,-1.46846 -1.38108,-2.3831 -1.66192,-2.61533 l -0.008,-0.008 -0.008,-0.006 c -0.46196,-0.39854 -0.85877,-0.6278 -1.14256,-0.72451 l -0.01,-0.004 -0.008,-0.004 c -0.12549,-0.0456 -1.12277,-0.18706 -2.57401,-0.18706 -0.96933,0 -1.41846,0.0122 -1.97094,0.0212 0.0132,3.56801 0.0617,6.52573 0.17777,8.11527 l 0.078,1.07228 z m 10.55491,-9.81594 c 10e-4,0.002 0.002,0.006 0.004,0.007 0.004,0.003 0.008,0.003 0.0119,0.006 z m 6.64352,-27.9187 0.74621,-3.50004 1.08779,0.41031 c 0.82923,0.31219 1.59115,0.52491 2.28151,0.64646 0.001,0 0.003,0.002 0.004,0.002 0.71345,0.11333 1.47791,0.17003 2.29288,0.17003 1.83311,0 3.0739,-0.32933 3.72278,-0.78134 0.62602,-0.43612 0.95084,-1.08329 0.95084,-2.34199 0,-0.94001 -0.25542,-1.5779 -0.78703,-2.12492 l -0.002,-0.002 -0.004,-0.002 c -0.49606,-0.51763 -1.78013,-1.26394 -3.77135,-1.98437 l -0.004,-0.002 h -0.002 c -2.12656,-0.78009 -3.6635,-1.58263 -4.66018,-2.59209 l -0.002,-0.004 -0.004,-0.002 c -0.98353,-1.00875 -1.49241,-2.35416 -1.49241,-3.82818 0,-1.77736 0.72793,-3.36455 2.07274,-4.46484 l 0.002,-0.002 h 0.002 c 1.32979,-1.0782 2.98906,-1.61903 4.8302,-1.61903 h 5.1e-4 c 1.9152,0 3.57617,0.18592 4.99608,0.58033 l 0.92759,0.25787 -0.76377,3.21066 -0.97255,-0.23048 c -0.94012,-0.2224 -1.7291,-0.37631 -2.35542,-0.46302 l -0.008,-0.002 -0.0103,-0.002 c -0.60731,-0.0949 -1.24311,-0.14264 -1.90789,-0.14264 -1.29456,0 -2.15821,0.2907 -2.7249,0.76171 -0.59336,0.49186 -0.81649,0.96671 -0.81649,1.695 0,0.64558 0.11091,1.0809 0.23668,1.31879 0.14337,0.25347 0.47697,0.62481 1.0387,1.03301 l 0.002,0.002 c 0.53257,0.37658 1.35315,0.79271 2.44171,1.20509 l 0.006,0.002 c 1.17315,0.43357 2.21359,0.88617 3.12539,1.36321 0.93661,0.47948 1.70029,1.01441 2.28307,1.64436 0.56697,0.5919 0.99688,1.25198 1.24591,1.973 0.23973,0.69395 0.34985,1.45798 0.34985,2.281 0,2.03914 -0.78368,3.79002 -2.28926,4.88497 -1.49538,1.08755 -3.53067,1.55649 -6.04511,1.55649 -1.94251,0 -3.6512,-0.2082 -5.13457,-0.64648 z m 0.8661,29.61939 c 0,-1.20605 0.14325,-2.34363 0.43925,-3.40238 l 0.002,-0.004 v -0.006 c 0.30729,-1.05847 0.76776,-2.03642 1.37718,-2.92179 l 0.0155,-0.0217 0.0155,-0.0212 c 1.14047,-1.48445 2.70338,-2.25962 4.41419,-2.60554 v -0.72295 c 0,-0.43717 0.093,-0.48466 0.16175,-0.63664 0.0674,-0.14891 0.14887,-0.3067 0.25218,-0.49196 0.20873,-0.38452 0.51882,-0.91184 0.92966,-1.5901 l 1.18959,-2.05465 c 0.11798,-0.20764 0.2005,-0.358 0.2558,-0.46302 v -0.78703 h 4.18579 v 0.99994 c 0,0.28171 -0.0594,0.3547 -0.0894,0.4222 -0.03,0.0675 -0.054,0.10697 -0.0744,0.14057 -0.0408,0.0672 -0.0732,0.11107 -0.10955,0.16018 -0.072,0.0973 -0.1573,0.20169 -0.26562,0.33176 l -0.002,0.004 c -0.19656,0.23788 -0.36327,0.43505 -0.50384,0.59737 l -0.004,0.006 -1.25212,1.46659 -0.002,0.002 -0.002,0.004 c -0.58533,0.67776 -1.06023,1.23939 -1.42369,1.68362 -0.15997,0.19553 -0.26648,0.33796 -0.33228,0.43358 v 0.45111 c 1.38423,0.27961 2.64207,0.81058 3.52743,1.84952 1.17929,1.3716 1.77354,3.11052 1.77354,5.05084 0,0.59269 -0.0189,1.07773 -0.0682,1.48466 l -0.10542,0.87077 -10.87324,0.11935 c 0.16978,1.29315 0.57514,2.40795 1.41232,3.30266 1.04558,1.09614 2.38951,1.64071 4.27881,1.64071 1.52454,0 2.75759,-0.15801 3.67781,-0.4377 l 1.55701,-0.47231 -0.60151,3.43752 -0.57464,0.18344 c -0.42976,0.13864 -0.95566,0.23516 -1.6521,0.33176 -0.003,0 -0.003,0.002 -0.006,0.002 -0.72291,0.11036 -1.48065,0.16433 -2.27531,0.16433 -2.91369,0 -5.29251,-0.78761 -6.90604,-2.46133 l -0.002,-0.002 -0.004,-0.002 c -1.54246,-1.62364 -2.33578,-3.70234 -2.33578,-6.03734 z m 14.85439,-33.8832 c 0,-1.97096 0.95614,-3.67861 2.638601,-4.73615 v -0.002 h 0.002 c 1.62009,-1.01113 4.16671,-1.3957 7.51944,-1.4919 10e-4,-0.0565 0.0103,-0.11589 0.0103,-0.17209 0,-1.22615 -0.29667,-1.79482 -0.77153,-2.11717 l -0.004,-0.004 -0.004,-0.002 c -0.58416,-0.40442 -1.4702,-0.65784 -2.73213,-0.65784 -1.56824,0 -3.14757,0.19905 -4.745971,0.60357 l -1.45934,0.36899 0.52348,-3.467 0.63304,-0.16949 c 1.665481,-0.4463 3.372281,-0.67024 5.111311,-0.67024 1.92494,0 3.5464,0.39859 4.77697,1.31051 1.3007,0.95342 1.91255,2.57154 1.91255,4.48088 0,0.59327 -0.0318,1.41821 -0.0941,2.49803 v 0.008 c -0.0507,1.04593 -0.076,2.08598 -0.076,3.12127 0,1.46711 0.11371,3.02707 0.34571,4.68135 l 0.15245,1.08418 -3.22668,0.16021 -0.14262,-0.88265 c -0.0106,-0.0639 -0.006,-0.10761 -0.0155,-0.17002 -1.3137,0.79549 -2.77271,1.33585 -4.45503,1.33585 -1.71789,0 -3.17776,-0.37946 -4.259691,-1.26349 l -0.004,-0.004 -0.002,-0.002 c -1.08852,-0.90268 -1.63297,-2.28624 -1.63297,-3.84005 z m 2.0929,25.39068 3.767211,-0.21291 -0.0506,1.10744 c -0.0818,1.78922 -0.12299,3.83543 -0.12299,6.13863 0,1.84184 0.0513,3.32925 0.15038,4.43952 0.0906,1.01409 0.36854,1.5435 0.61908,1.76165 0.23527,0.1978 0.97194,0.45942 2.23035,0.45942 1.80991,0 3.07763,-0.46998 4.04885,-1.25987 -0.004,-5.72195 -0.04,-9.74883 -0.11679,-11.44738 l -0.045,-0.98031 3.51555,-0.22479 -0.031,2.13736 v 0.002 c -0.0516,3.09732 -0.0765,5.55176 -0.0765,7.36129 0,2.1209 0.0901,4.20008 0.27337,6.23634 l 0.0961,1.06246 -2.30683,0.0584 -0.82838,0.0196 -0.17363,-0.81029 c -0.0106,-0.0512 -0.007,-0.0887 -0.0176,-0.13901 -0.38231,0.20886 -0.68966,0.46482 -1.12706,0.64079 -1.02471,0.41222 -2.13613,0.61339 -3.30471,0.61339 -2.30521,0 -4.09712,-0.47612 -5.08393,-1.81642 l -0.004,-0.006 -0.002,-0.004 c -0.83918,-1.16978 -1.211291,-2.68039 -1.211291,-4.44315 v -0.004 l 0.0155,-1.96474 c 0,-0.26194 0.006,-0.6191 0.016,-1.07796 v -0.006 -0.008 c 0.0203,-0.54822 0.0289,-1.29863 0.0289,-2.24224 0,-1.29167 -0.0589,-2.75013 -0.18139,-4.37338 z m 13.928861,-44.47635 3.97857,-0.13488 -0.0491,1.08212 c -0.12295,2.70557 -0.18552,6.12899 -0.18552,10.26345 0,4.10003 0.0835,7.95062 0.24805,11.5507 l 0.047,1.04492 h -3.92379 l 0.0661,-1.0604 c 0.19462,-3.18582 0.29094,-7.03321 0.29093,-11.53522 1e-5,-3.78074 -0.12703,-7.16926 -0.3824,-10.16217 z m 2.55333,44.5761 3.50005,-0.74983 0.21342,1.59888 c 1.3952,-0.93332 2.82688,-1.58184 4.30258,-1.58184 1.9294,0 3.528,0.40939 4.6762,1.38494 v 0.002 c 1.2189,1.02791 1.71669,2.70269 1.71669,4.76147 v 0.006 l -0.016,1.10898 v 0.0139 c 0,0.19386 -0.006,0.4544 -0.016,0.8046 7e-5,1.24259 0.004,2.25253 0.014,3.01376 v 0.006 l 0.0181,6.13865 h -3.63492 l 0.0863,-1.07796 c 0.2459,-3.12433 0.36897,-6.3708 0.36897,-9.73638 0,-1.41197 -0.34229,-2.09412 -0.85369,-2.4453 v -0.002 -0.002 c -0.6441,-0.44775 -1.51913,-0.70538 -2.71663,-0.70538 -1.35069,0 -2.55219,0.5166 -3.73259,1.5198 -0.015,0.76287 -0.0269,1.76524 -0.0269,3.35743 0,1.3404 0.006,2.60709 0.016,3.80235 v 0.002 l 0.031,3.2892 v 0.006 c 0,0.20169 0.004,0.52768 0.0139,0.96843 l 0.0238,1.0237 h -3.56051 l 0.0512,-1.04902 c 0.18575,-3.80834 0.27699,-6.35588 0.27699,-7.57836 0,-2.00038 -0.19978,-4.319 -0.6072,-6.94685 z m 3.95842,-44.5761 3.97857,-0.13488 -0.0491,1.08212 c -0.1235,2.70555 -0.18552,6.12899 -0.18552,10.26345 0,4.10003 0.0834,7.95065 0.24805,11.5507 l 0.047,1.04492 h -3.9238 l 0.0641,-1.0604 c 0.19467,-3.18582 0.29301,-7.03321 0.29301,-11.53522 0,-3.78074 -0.12702,-7.16928 -0.38241,-10.16217 z m 6.47557,15.69154 c 0,-1.20605 0.14377,-2.34154 0.43977,-3.40029 v -0.006 -0.004 c 0.3073,-1.05844 0.76736,-2.03848 1.37666,-2.92386 l 0.014,-0.0212 0.016,-0.0217 c 1.4565,-1.89566 3.4942,-2.93158 5.8167,-2.93161 l 0.003,5.3e-4 c 2.054,0 3.83226,0.71599 5.03897,2.13061 1.17999,1.37182 1.7756,3.11404 1.7756,5.055 0,0.59269 -0.0213,1.07722 -0.0703,1.48415 l -0.10542,0.86919 -10.87272,0.12094 c 0.1697,1.29312 0.5746,2.40845 1.4118,3.30314 1.0456,1.09616 2.39002,1.64023 4.27932,1.64023 1.5245,0 2.75761,-0.15751 3.67781,-0.4372 l 1.5565,-0.47284 -0.60152,3.43546 -0.57412,0.18552 c -0.4298,0.13862 -0.95612,0.23567 -1.65261,0.33227 -0.01,0 -0.01,0.002 -0.01,0.002 -0.723,0.11036 -1.48072,0.16383 -2.27532,0.16383 -2.9137,0 -5.29295,-0.78711 -6.90655,-2.46083 v -0.002 -0.004 c -1.5425,-1.62341 -2.33784,-3.70184 -2.33784,-6.03684 z m 6.20066,29.02304 3.91603,-0.93535 -0.062,1.33016 c -0.113,2.38832 -0.17001,5.09691 -0.17001,8.12303 0,2.50129 0.0783,4.75975 0.23099,6.77529 l 0.0796,1.07641 h -3.76928 l 0.0661,-1.06247 c 0.1534,-2.48417 0.22996,-4.74718 0.22996,-6.78923 0,-2.88266 -0.13926,-5.42811 -0.41186,-7.629 z m 0.18913,-3.80804 c 0,-0.55724 0.19502,-1.11892 0.53692,-1.55855 l 0.0103,-0.01 0.01,-0.008 c 0.4008,-0.49183 1.0636,-0.78703 1.6893,-0.78703 l -0.002,5.3e-4 c 0.5724,0 1.16915,0.34068 1.49035,0.78909 0.2985,0.40878 0.45527,0.92099 0.45527,1.42007 0,0.53877 -0.14834,1.08278 -0.45734,1.52911 -0.3685,0.53242 -1.0572,0.83405 -1.6738,0.83405 -0.5678,0 -1.18028,-0.27525 -1.54668,-0.71882 l -0.01,-0.01 -0.0103,-0.0119 c -0.32459,-0.41497 -0.49195,-0.95044 -0.49195,-1.46865 z m 6.00635,12.38634 c 0,-2.83258 0.77077,-5.21716 2.36937,-6.96857 1.5677,-1.71752 3.61386,-2.63499 5.90196,-2.63499 1.86655,9.8e-4 3.62074,0.74967 5.11907,2.12133 v 0.002 c 1.603,1.45865 2.35541,3.66646 2.35541,6.36498 0,2.79362 -0.78158,5.15482 -2.38848,6.8926 -1.5625,1.70048 -3.56746,2.61742 -5.79086,2.61742 -2.1045,0 -3.98576,-0.78454 -5.41776,-2.27531 v -0.002 -0.004 c -1.4489,-1.53262 -2.14871,-3.6372 -2.14871,-6.1133 z m 8.98964,-101.30235 c 0,-2.58091 0.76362,-4.94425 2.26342,-6.9691 1.5443,-2.08037 3.74327,-3.21064 6.28127,-3.21064 h 0.002 c 2.4763,0 4.60461,1.04859 6.05441,3.00188 v 0.002 c 1.4248,1.90485 2.14303,4.1724 2.14303,6.67764 0,2.823 -0.73643,5.31908 -2.22312,7.37266 -1.5073,2.09685 -3.76008,3.22099 -6.40788,3.22099 -2.4639,0 -4.58079,-1.08696 -6.01359,-3.08766 -1.4038,-1.96041 -2.09961,-4.33467 -2.09961,-7.00783 z m 6.9019,63.91754 c 0,-2.64326 0.75325,-4.92429 2.27945,-6.67194 1.5356,-1.75824 3.68611,-2.66806 6.17791,-2.66806 1.0137,0 1.92202,0.11568 2.72852,0.37105 0.1223,0.0367 0.18934,0.13663 0.30644,0.17984 -0.014,-1.69209 -0.0321,-3.45689 -0.0961,-6.03737 l -0.0248,-0.96843 3.72484,-0.21291 -0.0713,1.1307 c -0.081,1.20877 -0.12299,2.69192 -0.12299,4.44365 0,0.70691 0.01,1.12297 0.01,1.62317 v 0.9803 l 0.014,2.77554 0.0899,0.0858 h -0.0899 v 0.26924 0.002 c 0,4.59607 0.0931,8.46563 0.27751,11.59981 l 0.061,1.03301 -3.20135,0.0765 -0.14418,-0.85164 c -0.012,-0.0501 -0.002,-0.11509 -0.0124,-0.16587 -0.3458,0.21513 -0.57497,0.51126 -0.98237,0.68522 -1.0592,0.45223 -2.2372,0.67024 -3.50779,0.67024 -2.141,0 -4.03379,-0.86505 -5.40019,-2.4789 v -0.002 -0.004 c -1.3399,-1.6079 -2.0159,-3.61596 -2.0159,-5.86529 z m 2.08101,28.66803 3.50004,-0.74983 0.21136,1.60094 c 1.3959,-0.93427 2.82618,-1.5839 4.30258,-1.5839 1.9295,0 3.52955,0.40891 4.67775,1.38443 v 0.002 c 1.2189,1.02788 1.71514,2.70319 1.71514,4.76197 v 0.006 l -0.0139,1.1095 v 0.0139 c -0.001,0.18725 -0.006,0.44448 -0.016,0.77722 v 0.0212 0.006 c 0,1.24262 0.006,2.25253 0.016,3.01376 v 0.006 l 0.017,6.13865 h -3.63492 l 0.0837,-1.07796 c 0.2458,-3.12433 0.36948,-6.3708 0.36948,-9.73638 0,-1.41197 -0.34022,-2.09412 -0.85162,-2.4453 v -0.002 -0.002 c -0.6442,-0.44778 -1.51768,-0.70538 -2.71508,-0.70538 -1.3503,0 -2.55207,0.51726 -3.73207,1.5198 -0.015,0.76287 -0.0274,1.76524 -0.0274,3.35743 0,1.3404 0.006,2.60709 0.016,3.80235 v 0.002 l 0.0289,3.2892 v 0.006 c 0,0.20169 0.006,0.52768 0.016,0.96843 l 0.0232,1.0237 h -3.56051 l 0.0512,-1.04902 c 0.1853,-3.80834 0.27699,-6.35588 0.27699,-7.57836 0,-2.00038 -0.20177,-4.319 -0.60927,-6.94685 z m 9.50898,-97.7713 7.36751,-5.33974 h 2.20555 l -0.0388,1.0387 c -0.1139,2.9451 -0.17208,6.44848 -0.17208,10.50427 0,2.89219 0.0561,5.52337 0.17001,7.89255 l 0.0512,1.04852 h -3.79718 l 0.0982,-1.09141 c 0.1553,-1.72125 0.23823,-4.35091 0.23823,-7.84966 0,-2.39688 -0.0121,-4.27532 -0.0351,-5.62911 -0.007,-0.43702 -0.0179,-0.44649 -0.0289,-0.77928 l -4.33772,2.76159 z m 5.83737,68.94929 c 0,-1.20608 0.14532,-2.34157 0.44132,-3.40032 v -0.006 -0.004 c 0.3073,-1.05844 0.76777,-2.03848 1.37717,-2.92383 l 0.016,-0.0212 0.016,-0.0217 c 1.4564,-1.89569 3.49162,-2.93367 5.81412,-2.93367 l -0.003,5e-4 c 2.054,0 3.83227,0.71805 5.03897,2.1327 1.18,1.37179 1.7756,3.11195 1.7756,5.05291 0,0.59269 -0.0192,1.07929 -0.0682,1.48622 l -0.10542,0.8692 -10.87272,0.11886 c 0.1696,1.29243 0.57208,2.40667 1.40818,3.30107 1.0461,1.09834 2.39174,1.64436 4.28294,1.64436 1.5245,0 2.75761,-0.15751 3.67781,-0.4372 l 1.55443,-0.4749 -0.59944,3.43752 -0.57413,0.18553 c -0.4278,0.13798 -0.95264,0.23399 -1.64434,0.3302 l -0.014,0.002 c -0.7235,0.11054 -1.48208,0.16589 -2.27738,0.16589 -2.9137,0 -5.29306,-0.78711 -6.90656,-2.46083 v -0.004 -0.002 c -1.54249,-1.62414 -2.33783,-3.70231 -2.33783,-6.03731 z" />
    <path
       id="path849-3-7-9-0-9"
       style="fill:#b1b1b1;fill-opacity:1;stroke:none;stroke-width:0.264583;stroke-linecap:butt;stroke-linejoin:miter;stroke-miterlimit:4;stroke-dasharray:none;stroke-opacity:1"
       d="m 334.39923,337.45197 -115.76296,73.00639 c -51.11144,32.11857 -49.44527,63.66489 -36.75848,83.87447 12.68678,20.20967 27.68415,23.26676 41.30497,24.77265 0,0 42.51712,1.06312 80.76458,-0.82837 38.24746,-1.8915 53.57938,-25.85391 59.73227,-36.5647 15.38238,-29.02147 13.10865,-60.2951 -3.60753,-87.56158 -7.43089,-11.83718 -24.21535,-40.36628 -25.67285,-56.69886 z m -3.91914,30.31701 h 4.09174 l -0.0801,1.07435 c -0.0378,0.51083 -0.0768,2.40714 -0.0997,5.48029 -0.02,2.68567 -0.028,5.06255 -0.031,7.31841 0.7209,-0.0286 1.43726,-0.0453 2.18178,-0.13642 l 1.40043,-0.17208 -0.78549,3.57601 h -2.80448 l -0.014,2.73833 v 0.002 0.004 c 0,1.75532 0.0295,3.4012 0.0863,4.93562 l 0.0388,1.03714 h -3.75791 l 0.0687,-1.06453 c 0.11988,-1.87777 0.16522,-4.587 0.17932,-7.65225 h -10.22057 l -0.62477,-1.73839 v -0.17415 c 0,-0.4271 0.1034,-0.5018 0.1757,-0.64647 0.0723,-0.14468 0.15704,-0.28724 0.26149,-0.45114 0.20815,-0.32664 0.49664,-0.73715 0.87539,-1.25005 0.75229,-1.03007 1.80511,-2.43834 3.16209,-4.2323 l 0.72243,-0.95705 c 0.25025,-0.35329 1.15687,-1.54821 2.84582,-3.76566 0.84102,-1.1042 1.46977,-1.94778 1.88103,-2.52129 0.20561,-0.28676 0.3587,-0.50885 0.447,-0.64648 z m -20.39514,0.10387 c 2.4772,0 4.60658,1.05124 6.05648,3.00602 1.424,1.90456 2.14457,4.17095 2.14457,6.67556 0,2.823 -0.73601,5.3196 -2.2226,7.37319 -1.5073,2.09836 -3.7596,3.22254 -6.4084,3.22254 -2.4639,0 -4.58285,-1.08695 -6.01565,-3.08766 -1.4039,-1.96039 -2.09962,-4.33468 -2.09962,-7.00784 0,-2.58091 0.76395,-4.94373 2.26395,-6.96857 1.5443,-2.08039 3.74317,-3.21324 6.28127,-3.21324 z m -6.34845,35.75751 v 0.0114 c 15.07318,0.1006 27.65818,2.98772 34.69297,14.61151 9.69369,19.72478 7.89266,34.88169 -2.10323,53.72747 -3.99829,6.95479 -17.17218,21.76504 -42.02586,22.99394 -24.85377,1.2281 -52.48207,0.53795 -52.48207,0.53795 -8.8509,-0.9776 -23.47655,-1.39068 -31.21824,-14.81666 -10.31708,-17.89229 -5.16309,-35.87474 28.04996,-56.73142 0,0 24.43055,-17.73914 53.78742,-19.99413 2.80929,-0.15621 5.56623,-0.27106 8.25272,-0.31316 1.026,-0.027 2.04143,-0.0269 3.04633,-0.0269 z" />
    <g
       id="path859-0-1"
       style="font-style:normal;font-variant:normal;font-weight:normal;font-stretch:normal;font-size:35.2778px;line-height:1.25;font-family:Candara;-inkscape-font-specification:'Candara, Normal';font-variant-ligatures:normal;font-variant-caps:normal;font-variant-numeric:normal;font-variant-east-asian:normal;fill:none;stroke:#000003;stroke-width:0.264583;stroke-miterlimit:4;stroke-dasharray:none;stroke-opacity:1"
       transform="translate(-275.20934,402.80825)" />
    <path
       id="path849-3-7-9-0-3"
       style="fill:#000000;fill-opacity:0.076087;stroke:#000003;stroke-width:0.264583;stroke-linecap:butt;stroke-linejoin:miter;stroke-miterlimit:4;stroke-dasharray:none;stroke-opacity:1"
       d="m 385.94034,-446.03528 -115.763,73.0064 c -51.1115,32.1186 -49.4453,63.66487 -36.7585,83.87447 12.6868,20.20969 27.6842,23.26675 41.305,24.77264 0,0 42.5171,1.06313 80.7646,-0.82837 38.2475,-1.8915 53.5794,-25.85389 59.7323,-36.56469 15.3824,-29.0215 13.1086,-60.29508 -3.6076,-87.56158 -7.4309,-11.8372 -24.2153,-40.36627 -25.6728,-56.69887 z m -24.3143,30.42089 c 2.4771,0 4.6066,1.05123 6.0565,3.00601 1.424,1.90456 2.1446,4.17096 2.1446,6.67557 0,2.823 -0.736,5.3196 -2.2227,7.37319 -1.5072,2.09836 -3.7595,3.22254 -6.4083,3.22254 -2.464,0 -4.5829,-1.08696 -6.0157,-3.08767 -1.4039,-1.96039 -2.0996,-4.33467 -2.0996,-7.00784 0,-2.58091 0.764,-4.94372 2.2639,-6.96856 1.5444,-2.08039 3.7432,-3.21324 6.2813,-3.21324 z m -6.3485,35.7575 v 0.0114 c 15.0733,0.1006 27.6582,2.98771 34.693,14.61151 9.6937,19.7248 7.8927,34.88167 -2.1032,53.72747 -3.9983,6.9548 -17.1721,21.76505 -42.0259,22.99395 -24.8538,1.2281 -52.482,0.53795 -52.482,0.53795 -8.8509,-0.9776 -23.4766,-1.39067 -31.2183,-14.81667 -10.3171,-17.8923 -5.1631,-35.87472 28.05,-56.73142 0,0 24.4305,-17.73914 53.7874,-19.99413 2.8093,-0.15621 5.5662,-0.27105 8.2527,-0.31315 1.0261,-0.027 2.0415,-0.0269 3.0463,-0.0269 z"
       sodipodi:nodetypes="ccscsccccscssscsccccccsccccsc" />
    <g
       id="path861-4-5"
       style="font-style:normal;font-variant:normal;font-weight:normal;font-stretch:normal;font-size:35.2778px;line-height:1.25;font-family:Candara;-inkscape-font-specification:'Candara, Normal';font-variant-ligatures:normal;font-variant-caps:normal;font-variant-numeric:normal;font-variant-east-asian:normal;fill:none;stroke:#000003;stroke-width:0.264583;stroke-miterlimit:4;stroke-dasharray:none;stroke-opacity:1"
       transform="translate(-241.78885,-380.67896)">
      <path
         style="color:#000000;font-style:normal;font-variant:normal;font-weight:normal;font-stretch:normal;font-size:35.2778px;line-height:1.25;font-family:Candara;-inkscape-font-specification:'Candara, Normal';font-variant-ligatures:normal;font-variant-position:normal;font-variant-caps:normal;font-variant-numeric:normal;font-variant-alternates:normal;font-variant-east-asian:normal;font-feature-settings:normal;font-variation-settings:normal;text-indent:0;text-align:start;text-decoration:none;text-decoration-line:none;text-decoration-style:solid;text-decoration-color:#000000;letter-spacing:normal;word-spacing:normal;text-transform:none;writing-mode:lr-tb;direction:ltr;text-orientation:mixed;dominant-baseline:auto;baseline-shift:baseline;text-anchor:start;white-space:normal;shape-padding:0;shape-margin:0;inline-size:0;clip-rule:nonzero;display:inline;overflow:visible;visibility:visible;isolation:auto;mix-blend-mode:normal;color-interpolation:sRGB;color-interpolation-filters:linearRGB;solid-color:#000000;solid-opacity:1;vector-effect:none;fill:none;fill-opacity:1;fill-rule:nonzero;stroke:#000003;stroke-width:0.264583;stroke-linecap:butt;stroke-linejoin:miter;stroke-miterlimit:4;stroke-dasharray:none;stroke-dashoffset:0;stroke-opacity:1;color-rendering:auto;image-rendering:auto;shape-rendering:auto;text-rendering:auto;enable-background:accumulate;stop-color:#000000;stop-opacity:1"
         d="m 616.12695,-35.039062 v 1 c 0,1.755415 -0.28715,5.15669 -0.87109,10.080078 l -0.13281,1.117187 h 1.125 c 2.76786,0 4.87497,0.148882 6.2539,0.414063 h 0.004 0.004 c 1.3528,0.249748 2.27623,0.717608 2.875,1.333984 l 0.006,0.0039 0.004,0.0059 c 0.55667,0.55667 0.89649,1.439344 0.89649,2.857422 0,1.777847 -0.79589,3.114625 -2.71875,4.320312 l -0.002,0.002 -0.004,0.002 c -1.93136,1.22809 -4.45161,1.953421 -7.61133,2.119141 l -1.31055,0.06836 1.0625,3.1894534 0.74024,-0.019531 c 2.27436,-0.060488 4.44509,-0.5161099 6.48828,-1.3671875 2.06748,-0.8563549 3.75398,-2.0653199 4.99609,-3.6230469 1.24654,-1.551807 1.9082,-3.334191 1.9082,-5.22461 0,-2.52355 -1.06246,-4.607324 -3.05468,-5.785156 -1.79006,-1.064355 -4.50018,-1.520252 -7.96094,-1.654297 0.0263,-0.590352 0.04,-1.132692 0.125,-1.966797 v -0.002 c 0.1002,-0.992942 0.251,-2.304418 0.41016,-3.660156 2.63101,0.02368 5.16949,0.113055 7.50976,0.335937 l 1.03516,0.09766 0.20117,-3.644531 z"
         id="path902-7-4" />
    </g>
    <path
       id="path849-3-7-9-0-99"
       style="fill:#000000;fill-opacity:0.076087;stroke:#000003;stroke-width:0.264583;stroke-linecap:butt;stroke-linejoin:miter;stroke-miterlimit:4;stroke-dasharray:none;stroke-opacity:1"
       d="m 609.55564,-398.54484 -115.7629,73.0064 c -51.1115,32.1186 -49.4453,63.66487 -36.7585,83.87447 12.6868,20.20969 27.6841,23.26675 41.3049,24.77264 0,0 42.5171,1.06313 80.7646,-0.82837 38.2475,-1.8915 53.5794,-25.85389 59.7323,-36.56469 15.3824,-29.0215 13.1087,-60.29508 -3.6075,-87.56158 -7.431,-11.8372 -24.2154,-40.36627 -25.6729,-56.69887 z m -24.3143,30.42089 c 2.4772,0 4.6066,1.05123 6.0565,3.00601 1.424,1.90456 2.1446,4.17096 2.1446,6.67557 0,2.823 -0.736,5.3196 -2.2226,7.37319 -1.5073,2.09836 -3.7596,3.22254 -6.4084,3.22254 -2.4639,0 -4.5829,-1.08696 -6.0157,-3.08767 -1.4039,-1.96039 -2.0996,-4.33467 -2.0996,-7.00784 0,-2.58091 0.764,-4.94372 2.264,-6.96856 1.5443,-2.08039 3.7431,-3.21324 6.2812,-3.21324 z m -6.3484,35.7575 v 0.0114 c 15.0732,0.1006 27.6582,2.98771 34.693,14.61151 9.6937,19.7248 7.8926,34.88167 -2.1033,53.72747 -3.9983,6.9548 -17.1721,21.76505 -42.0258,22.99395 -24.8538,1.2281 -52.4821,0.53795 -52.4821,0.53795 -8.8509,-0.9776 -23.4766,-1.39067 -31.2183,-14.81667 -10.317,-17.8923 -5.1631,-35.87472 28.05,-56.73142 0,0 24.4305,-17.73914 53.7874,-19.99413 2.8093,-0.15621 5.5663,-0.27105 8.2528,-0.31315 1.026,-0.027 2.0414,-0.0269 3.0463,-0.0269 z"
       sodipodi:nodetypes="ccscsccccscssscsccccccsccccsc" />
    <g
       id="path863-7-7"
       style="font-style:normal;font-variant:normal;font-weight:normal;font-stretch:normal;font-size:35.2778px;line-height:1.25;font-family:Candara;-inkscape-font-specification:'Candara, Normal';font-variant-ligatures:normal;font-variant-caps:normal;font-variant-numeric:normal;font-variant-east-asian:normal;fill:none;stroke:#000003;stroke-width:0.264583;stroke-miterlimit:4;stroke-dasharray:none;stroke-opacity:1"
       transform="translate(-36.61582,-333.77598)">
      <path
         style="color:#000000;font-style:normal;font-variant:normal;font-weight:normal;font-stretch:normal;font-size:35.2778px;line-height:1.25;font-family:Candara;-inkscape-font-specification:'Candara, Normal';font-variant-ligatures:normal;font-variant-position:normal;font-variant-caps:normal;font-variant-numeric:normal;font-variant-alternates:normal;font-variant-east-asian:normal;font-feature-settings:normal;font-variation-settings:normal;text-indent:0;text-align:start;text-decoration:none;text-decoration-line:none;text-decoration-style:solid;text-decoration-color:#000000;letter-spacing:normal;word-spacing:normal;text-transform:none;writing-mode:lr-tb;direction:ltr;text-orientation:mixed;dominant-baseline:auto;baseline-shift:baseline;text-anchor:start;white-space:normal;shape-padding:0;shape-margin:0;inline-size:0;clip-rule:nonzero;display:inline;overflow:visible;visibility:visible;isolation:auto;mix-blend-mode:normal;color-interpolation:sRGB;color-interpolation-filters:linearRGB;solid-color:#000000;solid-opacity:1;vector-effect:none;fill:none;fill-opacity:1;fill-rule:nonzero;stroke:#000003;stroke-width:0.264583;stroke-linecap:butt;stroke-linejoin:miter;stroke-miterlimit:4;stroke-dasharray:none;stroke-dashoffset:0;stroke-opacity:1;color-rendering:auto;image-rendering:auto;shape-rendering:auto;text-rendering:auto;enable-background:accumulate;stop-color:#000000;stop-opacity:1"
         d="m 646.26758,-40.068359 -0.9336,0.07227 c -3.99869,0.307592 -7.17019,1.74896 -9.26562,4.34375 -2.09543,2.594791 -3.07813,6.230207 -3.07813,10.794922 0,3.047322 0.71116,5.635442 2.19336,7.654297 l 0.002,0.002 0.002,0.0039 c 1.50264,2.016371 3.66809,3.107422 6.17578,3.107422 2.45488,0 4.59884,-0.786832 6.22266,-2.345703 l 0.002,-0.002 v -0.002 c 1.62439,-1.572407 2.45899,-3.680268 2.45899,-6.091797 0,-2.524733 -0.67379,-4.627324 -2.10743,-6.103516 -1.44404,-1.498538 -3.56207,-2.201172 -6.12695,-2.201172 -1.38485,0 -2.73825,0.282427 -4.02734,0.837891 -0.2831,0.120525 -0.50808,0.29333 -0.76758,0.435547 0.49004,-1.901941 1.15081,-3.521847 2.14258,-4.5625 l 0.002,-0.002 c 1.42903,-1.509541 3.5407,-2.426484 6.50977,-2.6875 l 1.05273,-0.09375 z"
         id="path908-4-1"
         sodipodi:nodetypes="ccsscccssccscsccssccc" />
    </g>
    <text
       xml:space="preserve"
       style="font-style:normal;font-variant:normal;font-weight:normal;font-stretch:normal;font-size:14.1111px;line-height:1.25;font-family:Arial;-inkscape-font-specification:'Arial, Normal';font-variant-ligatures:normal;font-variant-caps:normal;font-variant-numeric:normal;font-variant-east-asian:normal;stroke-width:0.264583"
       x="33.681892"
       y="229.43777"
       id="text788"><tspan
         sodipodi:role="line"
         id="tspan786"
         style="font-style:normal;font-variant:normal;font-weight:normal;font-stretch:normal;font-size:14.1111px;font-family:Arial;-inkscape-font-specification:'Arial, Normal';font-variant-ligatures:normal;font-variant-caps:normal;font-variant-numeric:normal;font-variant-east-asian:normal;stroke-width:0.264583"
         x="33.681892"
         y="229.43777">Fond</tspan></text>
    <text
       xml:space="preserve"
       style="font-style:normal;font-variant:normal;font-weight:normal;font-stretch:normal;font-size:14.1111px;line-height:1.25;font-family:Arial;-inkscape-font-specification:'Arial, Normal';font-variant-ligatures:normal;font-variant-caps:normal;font-variant-numeric:normal;font-variant-east-asian:normal;stroke-width:0.264583"
       x="298.29337"
       y="277.12982"
       id="text842"><tspan
         sodipodi:role="line"
         id="tspan840"
         style="font-style:normal;font-variant:normal;font-weight:normal;font-stretch:normal;font-size:14.1111px;font-family:Arial;-inkscape-font-specification:'Arial, Normal';font-variant-ligatures:normal;font-variant-caps:normal;font-variant-numeric:normal;font-variant-east-asian:normal;stroke-width:0.264583"
         x="298.29337"
         y="277.12982">Intercalaire</tspan></text>
    <text
       xml:space="preserve"
       style="font-style:normal;font-variant:normal;font-weight:normal;font-stretch:normal;font-size:14.1111px;line-height:1.25;font-family:Arial;-inkscape-font-specification:'Arial, Normal';font-variant-ligatures:normal;font-variant-caps:normal;font-variant-numeric:normal;font-variant-east-asian:normal;stroke-width:0.264583"
       x="23.098549"
       y="432.20154"
       id="text910"><tspan
         sodipodi:role="line"
         id="tspan908"
         style="font-style:normal;font-variant:normal;font-weight:normal;font-stretch:normal;font-size:14.1111px;font-family:Arial;-inkscape-font-specification:'Arial, Normal';font-variant-ligatures:normal;font-variant-caps:normal;font-variant-numeric:normal;font-variant-east-asian:normal;stroke-width:0.264583"
         x="23.098549"
         y="432.20154">Façade A Inscription</tspan></text>
    <text
       xml:space="preserve"
       style="font-style:normal;font-variant:normal;font-weight:normal;font-stretch:normal;font-size:14.1111px;line-height:1.25;font-family:Arial;-inkscape-font-specification:'Arial, Normal';font-variant-ligatures:normal;font-variant-caps:normal;font-variant-numeric:normal;font-variant-east-asian:normal;stroke-width:0.264583"
       x="256.23413"
       y="538.01422"
       id="text914"><tspan
         sodipodi:role="line"
         id="tspan912"
         style="font-style:normal;font-variant:normal;font-weight:normal;font-stretch:normal;font-size:14.1111px;font-family:Arial;-inkscape-font-specification:'Arial, Normal';font-variant-ligatures:normal;font-variant-caps:normal;font-variant-numeric:normal;font-variant-east-asian:normal;stroke-width:0.264583"
         x="256.23413"
         y="538.01422">Façade B Porte-Doc</tspan></text>
    <text
       xml:space="preserve"
       style="font-style:normal;font-variant:normal;font-weight:normal;font-stretch:normal;font-size:14.1111px;line-height:1.25;font-family:Arial;-inkscape-font-specification:'Arial, Normal';font-variant-ligatures:normal;font-variant-caps:normal;font-variant-numeric:normal;font-variant-east-asian:normal;stroke-width:0.264583"
       x="20.91139"
       y="529.76666"
       id="text1728"><tspan
         sodipodi:role="line"
         id="tspan1726"
         style="font-style:normal;font-variant:normal;font-weight:normal;font-stretch:normal;font-size:14.1111px;font-family:Arial;-inkscape-font-specification:'Arial, Normal';font-variant-ligatures:normal;font-variant-caps:normal;font-variant-numeric:normal;font-variant-east-asian:normal;stroke-width:0.264583"
         x="20.91139"
         y="529.76666">Typo Chiffres</tspan></text>
    <text
       xml:space="preserve"
       style="font-style:normal;font-variant:normal;font-weight:normal;font-stretch:normal;font-size:19.7556px;line-height:1.25;font-family:Arial;-inkscape-font-specification:'Arial, Normal';font-variant-ligatures:normal;font-variant-caps:normal;font-variant-numeric:normal;font-variant-east-asian:normal;fill:none;stroke:#000003;stroke-width:0.565;stroke-dasharray:none;stroke-opacity:1"
       x="374.78842"
       y="31.467163"
       id="text2458"><tspan
         sodipodi:role="line"
         id="tspan2456"
         style="font-style:normal;font-variant:normal;font-weight:normal;font-stretch:normal;font-size:19.7556px;font-family:Arial;-inkscape-font-specification:'Arial, Normal';font-variant-ligatures:normal;font-variant-caps:normal;font-variant-numeric:normal;font-variant-east-asian:normal;text-align:end;text-anchor:end;fill:none;stroke:#000003;stroke-width:0.565;stroke-dasharray:none;stroke-opacity:1"
         x="374.78842"
         y="31.467163">Ecriteau Signalétique</tspan><tspan
         sodipodi:role="line"
         style="font-style:normal;font-variant:normal;font-weight:normal;font-stretch:normal;font-size:19.7556px;font-family:Arial;-inkscape-font-specification:'Arial, Normal';font-variant-ligatures:normal;font-variant-caps:normal;font-variant-numeric:normal;font-variant-east-asian:normal;text-align:end;text-anchor:end;fill:none;stroke:#000003;stroke-width:0.565;stroke-dasharray:none;stroke-opacity:1"
         x="374.78842"
         y="56.161663"
         id="tspan2460">Patio</tspan></text>
    <g
       id="g1836"
       transform="translate(-59.174772,5.9339197)"
       style="fill:#000000;fill-opacity:1">
      <text
         xml:space="preserve"
         style="font-size:11.2889px;line-height:1.25;font-family:PMingLiU-ExtB;-inkscape-font-specification:PMingLiU-ExtB;fill:#000000;fill-opacity:1;stroke-width:0.264583"
         x="76.727165"
         y="21.420341"
         id="text1775"><tspan
           sodipodi:role="line"
           id="tspan1773"
           x="76.727165"
           y="21.420341"
           style="font-style:normal;font-variant:normal;font-weight:bold;font-stretch:normal;font-size:11.2889px;font-family:Arial;-inkscape-font-specification:'Arial, Bold';font-variant-ligatures:normal;font-variant-caps:normal;font-variant-numeric:normal;font-variant-east-asian:normal;fill:#000000;fill-opacity:1;stroke-width:0.264583">Découpe Mdf 3mm</tspan></text>
      <text
         xml:space="preserve"
         style="font-style:normal;font-variant:normal;font-weight:normal;font-stretch:normal;font-size:8.46666667px;line-height:1.25;font-family:Arial;-inkscape-font-specification:'Arial, Normal';font-variant-ligatures:normal;font-variant-caps:normal;font-variant-numeric:normal;font-variant-east-asian:normal;stroke-width:0.264583;fill:#000000;fill-opacity:1"
         x="85.978508"
         y="31.095427"
         id="text1779"><tspan
           sodipodi:role="line"
           id="tspan1777"
           x="85.978508"
           y="31.095427"
           style="font-style:normal;font-variant:normal;font-weight:normal;font-stretch:normal;font-size:8.46666667px;font-family:Arial;-inkscape-font-specification:'Arial, Normal';font-variant-ligatures:normal;font-variant-caps:normal;font-variant-numeric:normal;font-variant-east-asian:normal;fill:#000000;fill-opacity:1;stroke-width:0.264583">Puissance 60%</tspan></text>
      <text
         xml:space="preserve"
         style="font-style:normal;font-variant:normal;font-weight:normal;font-stretch:normal;font-size:8.46666667px;line-height:1.25;font-family:Arial;-inkscape-font-specification:'Arial, Normal';font-variant-ligatures:normal;font-variant-caps:normal;font-variant-numeric:normal;font-variant-east-asian:normal;stroke-width:0.264583;fill:#000000;fill-opacity:1"
         x="85.978508"
         y="39.398064"
         id="text1779-4"><tspan
           sodipodi:role="line"
           id="tspan1777-1"
           x="85.978508"
           y="39.398064"
           style="font-style:normal;font-variant:normal;font-weight:normal;font-stretch:normal;font-size:8.46666667px;font-family:Arial;-inkscape-font-specification:'Arial, Normal';font-variant-ligatures:normal;font-variant-caps:normal;font-variant-numeric:normal;font-variant-east-asian:normal;fill:#000000;fill-opacity:1;stroke-width:0.264583">Vitesse 20mm/s</tspan></text>
    </g>
  </g>
</svg>
